<svg width="20" height="20" viewBox="0 0 20 20" fill="none" xmlns="http://www.w3.org/2000/svg">
<path fill-rule="evenodd" clip-rule="evenodd" d="M15.0013 3.33366C15.0013 4.25413 15.7475 5.00033 16.668 5.00033C17.5884 5.00033 18.3346 4.25413 18.3346 3.33366C18.3346 2.41318 17.5884 1.66699 16.668 1.66699C15.7475 1.66699 15.0013 2.41318 15.0013 3.33366ZM16.668 11.667C15.7475 11.667 15.0013 10.9208 15.0013 10.0003C15.0013 9.07985 15.7475 8.33366 16.668 8.33366C17.5884 8.33366 18.3346 9.07985 18.3346 10.0003C18.3346 10.9208 17.5884 11.667 16.668 11.667ZM16.668 18.3337C15.7475 18.3337 15.0013 17.5875 15.0013 16.667C15.0013 15.7465 15.7475 15.0003 16.668 15.0003C17.5884 15.0003 18.3346 15.7465 18.3346 16.667C18.3346 17.5875 17.5884 18.3337 16.668 18.3337ZM10.0013 18.3337C9.08083 18.3337 8.33463 17.5875 8.33463 16.667C8.33463 15.7465 9.08083 15.0003 10.0013 15.0003C10.9218 15.0003 11.668 15.7465 11.668 16.667C11.668 17.5875 10.9218 18.3337 10.0013 18.3337ZM8.33463 10.0003C8.33463 10.9208 9.08083 11.667 10.0013 11.667C10.9218 11.667 11.668 10.9208 11.668 10.0003C11.668 9.07985 10.9218 8.33366 10.0013 8.33366C9.08083 8.33366 8.33463 9.07985 8.33463 10.0003ZM10.0013 5.00033C9.08083 5.00033 8.33463 4.25413 8.33463 3.33366C8.33463 2.41318 9.08083 1.66699 10.0013 1.66699C10.9218 1.66699 11.668 2.41318 11.668 3.33366C11.668 4.25413 10.9218 5.00033 10.0013 5.00033ZM1.66797 16.667C1.66797 17.5875 2.41416 18.3337 3.33464 18.3337C4.25511 18.3337 5.0013 17.5875 5.0013 16.667C5.0013 15.7465 4.25511 15.0003 3.33464 15.0003C2.41416 15.0003 1.66797 15.7465 1.66797 16.667ZM3.33464 11.667C2.41416 11.667 1.66797 10.9208 1.66797 10.0003C1.66797 9.07985 2.41416 8.33366 3.33464 8.33366C4.25511 8.33366 5.0013 9.07985 5.0013 10.0003C5.0013 10.9208 4.25511 11.667 3.33464 11.667ZM1.66797 3.33366C1.66797 4.25413 2.41416 5.00033 3.33464 5.00033C4.25511 5.00033 5.0013 4.25413 5.0013 3.33366C5.0013 2.41318 4.25511 1.66699 3.33464 1.66699C2.41416 1.66699 1.66797 2.41318 1.66797 3.33366Z" fill="white"/>
</svg>
