<svg width="24" height="24" viewBox="0 0 24 24" fill="none" xmlns="http://www.w3.org/2000/svg">
<path fill-rule="evenodd" clip-rule="evenodd" d="M16.1393 3.00001C14.8232 3 13.9749 3.15424 13.0024 3.62254C12.6424 3.79592 12.3046 4.00472 11.9909 4.24831C11.6893 4.01837 11.365 3.81916 11.0198 3.65121C10.0285 3.16883 9.13662 3 7.86777 3C4.46949 3 2 5.77007 2 9.36773C2 12.0847 3.53985 14.7092 6.40804 17.2471C7.91354 18.5792 9.83575 19.8974 11.2124 20.5987L12 21L12.7876 20.5987C14.1643 19.8974 16.0865 18.5792 17.592 17.2471C20.4602 14.7092 22 12.0847 22 9.36773C22 5.80815 19.5072 3.01374 16.1393 3.00001ZM20 9.51554C20 11.6146 18.7433 13.7749 16.2789 15.9741C14.9353 17.1731 13.208 18.3714 12 19C10.792 18.3714 9.06473 17.1731 7.72113 15.9741C5.25673 13.7749 4 11.6146 4 9.51554C4 6.89421 5.67435 5 7.9596 5C8.94603 5 9.55389 5.11606 10.2535 5.45936C10.6667 5.66215 11.0319 5.92992 11.348 6.26453L12.0021 6.95681L12.6502 6.25904C12.9734 5.91102 13.344 5.63716 13.7617 5.4343C14.4408 5.10451 15.0107 5 16.0436 5.00001C18.3006 5.00929 20 6.93058 20 9.51554Z" fill="black"/>
</svg>
