<svg width="227" height="41" viewBox="0 0 227 41" fill="none" xmlns="http://www.w3.org/2000/svg">
<path d="M57.8583 16.2282L61.4869 17.325C61.2432 18.3426 60.8593 19.1926 60.3353 19.8751C59.8113 20.5576 59.1593 21.0725 58.3793 21.4198C57.6054 21.7671 56.6183 21.9408 55.4179 21.9408C53.9616 21.9408 52.7703 21.7305 51.8441 21.3101C50.924 20.8836 50.1288 20.1371 49.4585 19.0708C48.7883 18.0044 48.4531 16.6395 48.4531 14.976C48.4531 12.758 49.0411 11.0549 50.2172 9.86666C51.3993 8.67235 53.0689 8.0752 55.226 8.0752C56.9138 8.0752 58.2392 8.41643 59.2019 9.09889C60.1708 9.78135 60.8898 10.8294 61.359 12.2431L57.7029 13.0566C57.575 12.6483 57.4409 12.3497 57.3008 12.1608C57.0692 11.844 56.7859 11.6002 56.4507 11.4296C56.1156 11.259 55.7408 11.1737 55.3265 11.1737C54.3881 11.1737 53.6691 11.5515 53.1694 12.3071C52.7916 12.8677 52.6027 13.7482 52.6027 14.9486C52.6027 16.4354 52.8282 17.456 53.2791 18.0105C53.73 18.5589 54.3637 18.8331 55.1803 18.8331C55.9724 18.8331 56.5696 18.6107 56.9717 18.1659C57.38 17.7211 57.6755 17.0752 57.8583 16.2282Z" fill="white"/>
<path d="M62.7527 8.3037H75.3386V11.6124H71.1159V21.7031H66.9754V11.6124H62.7527V8.3037Z" fill="white"/>
<path d="M84.3427 19.4912H79.6264L78.9775 21.7031H74.7456L79.7818 8.3037H84.297L89.3332 21.7031H85.0008L84.3427 19.4912ZM83.4744 16.5938L81.9937 11.7769L80.5222 16.5938H83.4744Z" fill="white"/>
<path d="M103.541 21.7031H99.4005V11.5941H96.1649V15.7163C96.1649 17.4103 96.0735 18.6564 95.8907 19.4547C95.714 20.2468 95.2936 20.8287 94.6294 21.2004C93.9713 21.5721 92.905 21.758 91.4304 21.758C90.9794 21.758 90.4615 21.7092 89.8765 21.6117V18.8971H90.4981C91.0587 18.8971 91.4547 18.7752 91.6863 18.5315C91.9178 18.2817 92.0336 17.8277 92.0336 17.1696V8.3037H103.541V21.7031Z" fill="white"/>
<path d="M110.255 13.4679H112.467C114.496 13.4679 116.001 13.8274 116.982 14.5464C117.963 15.2593 118.453 16.3714 118.453 17.8826C118.453 19.1195 118.002 20.067 117.101 20.7251C116.205 21.3771 114.916 21.7031 113.234 21.7031H106.123V8.3037H110.255V13.4679ZM110.255 18.824H112.375C113.673 18.824 114.322 18.3548 114.322 17.4164C114.322 16.5938 113.673 16.1825 112.375 16.1825H110.255V18.824Z" fill="white"/>
<path d="M120.016 15.3782H125.427V18.2573H120.016V15.3782Z" fill="white"/>
<path d="M136.751 9.32739C140.822 9.75393 142.857 11.582 142.857 14.8115C142.857 18.108 140.822 19.9421 136.751 20.3138V21.7031H132.985V20.2773C128.921 19.9299 126.889 18.108 126.889 14.8115C126.889 11.5759 128.921 9.74784 132.985 9.32739V8.3037H136.751V9.32739ZM136.751 17.5078C137.403 17.3189 137.909 16.9838 138.268 16.5024C138.628 16.0149 138.808 15.433 138.808 14.7566C138.808 14.1107 138.622 13.5319 138.25 13.02C137.884 12.5021 137.385 12.1395 136.751 11.9323V17.5078ZM132.985 17.5444V12.0054C132.37 12.1822 131.873 12.5325 131.496 13.0566C131.118 13.5745 130.929 14.1656 130.929 14.8297C130.929 15.4513 131.115 16.0088 131.486 16.5024C131.864 16.996 132.364 17.3433 132.985 17.5444Z" fill="white"/>
<path d="M153.308 19.4912H148.592L147.943 21.7031H143.711L148.747 8.3037H153.263L158.299 21.7031H153.966L153.308 19.4912ZM152.44 16.5938L150.959 11.7769L149.488 16.5938H152.44Z" fill="white"/>
<path d="M172.191 21.7031H167.53L165.921 18.239C165.537 17.4225 165.239 16.9137 165.026 16.7126C164.812 16.5054 164.517 16.4019 164.139 16.4019V21.7031H160.008V8.3037H164.139V13.4496C164.498 13.4313 164.779 13.3033 164.98 13.0657C165.181 12.8281 165.495 12.1456 165.921 11.0183C166.232 10.1835 166.546 9.58636 166.863 9.22685C167.18 8.86125 167.694 8.59923 168.407 8.4408C169.12 8.28237 170.238 8.20316 171.762 8.20316V11.0366H171.552C170.845 11.0366 170.321 11.1707 169.979 11.4388C169.638 11.7069 169.358 12.1426 169.139 12.7458C168.919 13.343 168.682 13.7908 168.426 14.0894C168.176 14.3819 167.832 14.6165 167.393 14.7932C167.99 14.9882 168.511 15.3264 168.956 15.8077C169.401 16.283 169.873 17.0264 170.372 18.0379L172.191 21.7031Z" fill="white"/>
<path d="M173.301 8.3037H185.887V11.6124H181.665V21.7031H177.524V11.6124H173.301V8.3037Z" fill="white"/>
<path d="M186.883 8.3037H191.38L193.236 13.8243L195.064 8.3037H199.277L194.881 18.6503C194.521 19.4851 194.208 20.1097 193.939 20.524C193.671 20.9323 193.272 21.2705 192.742 21.5386C192.218 21.8006 191.496 21.9316 190.576 21.9316C190.088 21.9316 189.251 21.8616 188.062 21.7214V18.9519C188.763 19.0251 189.275 19.0616 189.598 19.0616C190.555 19.0616 191.136 18.7052 191.344 17.9922L186.883 8.3037Z" fill="white"/>
<path d="M200.89 8.3037H207.773C209.272 8.3037 210.393 8.66016 211.136 9.37309C211.886 10.086 212.261 11.1006 212.261 12.4168C212.261 13.7695 211.852 14.8267 211.036 15.5884C210.225 16.3501 208.985 16.7309 207.316 16.7309H205.049V21.7031H200.89V8.3037ZM205.049 14.0163H206.064C206.862 14.0163 207.422 13.8792 207.745 13.605C208.068 13.3247 208.23 12.9682 208.23 12.5356C208.23 12.1151 208.09 11.7587 207.809 11.4662C207.529 11.1737 207.002 11.0275 206.228 11.0275H205.049V14.0163Z" fill="white"/>
<path d="M221.557 19.4912H216.841L216.192 21.7031H211.96L216.996 8.3037H221.511L226.548 21.7031H222.215L221.557 19.4912ZM220.689 16.5938L219.208 11.7769L217.737 16.5938H220.689Z" fill="white"/>
<path d="M56.5707 33.5261H55.0702V30.3198L53.971 33.5261H52.9023L51.7115 30.3198V33.5261H50.2109V28.4182H52.3309L53.4388 31.3549L54.4551 28.4182H56.5707V33.5261Z" fill="white"/>
<path d="M62.8563 31.456H59.2969C59.3289 31.7705 59.406 32.0048 59.5281 32.1589C59.6997 32.3803 59.9236 32.4911 60.1998 32.4911C60.3743 32.4911 60.5401 32.4429 60.6971 32.3466C60.7931 32.2856 60.8963 32.1781 61.0068 32.0241L62.7559 32.2022C62.4884 32.7157 62.1656 33.0848 61.7876 33.3095C61.4096 33.5309 60.8672 33.6417 60.1606 33.6417C59.547 33.6417 59.0643 33.547 58.7124 33.3576C58.3605 33.165 58.0683 32.8618 57.8357 32.4477C57.6059 32.0305 57.4911 31.541 57.4911 30.9794C57.4911 30.1802 57.7222 29.5335 58.1846 29.0392C58.6499 28.545 59.2911 28.2979 60.1082 28.2979C60.7713 28.2979 61.2947 28.4086 61.6785 28.63C62.0624 28.8515 62.3546 29.1724 62.5553 29.5929C62.7559 30.0133 62.8563 30.5605 62.8563 31.2345V31.456ZM61.0504 30.5172C61.0155 30.1385 60.9225 29.8673 60.7713 29.7036C60.6229 29.5399 60.4267 29.4581 60.1824 29.4581C59.9003 29.4581 59.6749 29.5816 59.5063 29.8288C59.3987 29.9828 59.3304 30.2123 59.3013 30.5172H61.0504Z" fill="white"/>
<path d="M67.5759 29.848H66.2891V33.5261H64.5095V29.848H63.2227V28.4182H67.5759V29.848Z" fill="white"/>
<path d="M69.8267 30.0695L68.1299 29.8721C68.1939 29.5447 68.2855 29.288 68.4047 29.1018C68.5268 28.9125 68.7013 28.7488 68.9281 28.6108C69.091 28.5113 69.3149 28.4343 69.5999 28.3797C69.8849 28.3251 70.1931 28.2979 70.5246 28.2979C71.0568 28.2979 71.4842 28.3316 71.807 28.399C72.1298 28.4631 72.3988 28.5995 72.614 28.8082C72.7652 28.9526 72.8844 29.158 72.9717 29.4244C73.0589 29.6876 73.1025 29.9395 73.1025 30.1802V32.4381C73.1025 32.6788 73.1156 32.8682 73.1418 33.0062C73.1709 33.141 73.2319 33.3143 73.325 33.5261H71.6587C71.5918 33.3945 71.5482 33.295 71.5279 33.2276C71.5075 33.157 71.4871 33.0479 71.4668 32.9003C71.2342 33.1474 71.003 33.3239 70.7732 33.4298C70.4592 33.571 70.0942 33.6417 69.6784 33.6417C69.1259 33.6417 68.7057 33.5004 68.4178 33.218C68.1328 32.9356 67.9903 32.5873 67.9903 32.1733C67.9903 31.785 68.0935 31.4656 68.3 31.2153C68.5065 30.9649 68.8874 30.7788 69.4428 30.6568C70.1088 30.5092 70.5406 30.4065 70.7383 30.3487C70.9361 30.2877 71.1455 30.2091 71.3665 30.1128C71.3665 29.8721 71.3214 29.7036 71.2312 29.6073C71.1411 29.511 70.9826 29.4629 70.7558 29.4629C70.465 29.4629 70.2469 29.5142 70.1015 29.617C69.9881 29.6972 69.8965 29.848 69.8267 30.0695ZM71.3665 31.0997C71.1222 31.196 70.8677 31.2811 70.6031 31.3549C70.2425 31.4608 70.0143 31.5651 69.9183 31.6678C69.8194 31.7737 69.77 31.8941 69.77 32.0289C69.77 32.1829 69.818 32.3097 69.9139 32.4092C70.0128 32.5055 70.1567 32.5536 70.3458 32.5536C70.5435 32.5536 70.7267 32.5007 70.8954 32.3948C71.0669 32.2889 71.1876 32.1605 71.2574 32.0096C71.3301 31.8556 71.3665 31.6566 71.3665 31.4127V31.0997Z" fill="white"/>
<path d="M79.4884 33.5261H77.7131V29.848H76.3653V31.9904C76.3653 32.5617 76.2591 32.9853 76.0469 33.2613C75.8375 33.5373 75.5147 33.6754 75.0785 33.6754C74.5841 33.6754 74.1407 33.6256 73.7481 33.5261V32.077C73.9575 32.1476 74.1174 32.1829 74.2279 32.1829C74.4664 32.1829 74.5856 31.9872 74.5856 31.5956V28.4182H79.4884V33.5261Z" fill="white"/>
<path d="M85.8831 33.5261H84.1078V29.848H82.7599V31.9904C82.7599 32.5617 82.6538 32.9853 82.4415 33.2613C82.2321 33.5373 81.9093 33.6754 81.4731 33.6754C80.9788 33.6754 80.5353 33.6256 80.1427 33.5261V32.077C80.3521 32.1476 80.5121 32.1829 80.6226 32.1829C80.861 32.1829 80.9802 31.9872 80.9802 31.5956V28.4182H85.8831V33.5261Z" fill="white"/>
<path d="M86.738 30.9842C86.738 30.2043 86.9765 29.5624 87.4534 29.0585C87.9303 28.5514 88.5744 28.2979 89.3857 28.2979C90.3134 28.2979 91.0142 28.5947 91.4882 29.1885C91.8692 29.6667 92.0596 30.2556 92.0596 30.9553C92.0596 31.7416 91.8226 32.3867 91.3486 32.8906C90.8775 33.3913 90.2247 33.6417 89.3901 33.6417C88.6457 33.6417 88.0437 33.433 87.5843 33.0158C87.0201 32.4991 86.738 31.8219 86.738 30.9842ZM88.5177 30.9794C88.5177 31.4351 88.6006 31.7721 88.7663 31.9904C88.935 32.2086 89.1458 32.3177 89.3988 32.3177C89.6547 32.3177 89.8641 32.2102 90.027 31.9952C90.1927 31.7802 90.2756 31.4351 90.2756 30.9601C90.2756 30.5172 90.1927 30.1882 90.027 29.9732C89.8612 29.755 89.6562 29.6458 89.4119 29.6458C89.1531 29.6458 88.9394 29.7566 88.7707 29.978C88.602 30.1963 88.5177 30.5301 88.5177 30.9794Z" fill="white"/>
<path d="M97.8 33.5261H96.0247V29.848H94.6724V33.5261H92.8971V28.4182H97.8V33.5261Z" fill="white"/>
<path d="M98.8817 35.4711V28.4134H100.544V29.1692C100.773 28.8515 100.984 28.6365 101.176 28.5241C101.435 28.3733 101.721 28.2979 102.035 28.2979C102.655 28.2979 103.133 28.5594 103.471 29.0826C103.811 29.6057 103.981 30.2524 103.981 31.0227C103.981 31.8732 103.796 32.5231 103.427 32.9725C103.058 33.4186 102.591 33.6417 102.027 33.6417C101.753 33.6417 101.503 33.5903 101.276 33.4876C101.053 33.3849 100.852 33.2324 100.675 33.0302V35.4711H98.8817ZM100.661 30.9842C100.661 31.3886 100.738 31.6887 100.893 31.8845C101.047 32.0802 101.242 32.1781 101.477 32.1781C101.684 32.1781 101.857 32.0851 101.996 31.8989C102.136 31.7095 102.206 31.3902 102.206 30.9409C102.206 30.5268 102.133 30.2235 101.987 30.031C101.842 29.8352 101.665 29.7373 101.455 29.7373C101.228 29.7373 101.039 29.8352 100.888 30.031C100.737 30.2268 100.661 30.5445 100.661 30.9842Z" fill="white"/>
<path d="M104.613 30.9842C104.613 30.2043 104.852 29.5624 105.329 29.0585C105.806 28.5514 106.45 28.2979 107.261 28.2979C108.189 28.2979 108.89 28.5947 109.364 29.1885C109.744 29.6667 109.935 30.2556 109.935 30.9553C109.935 31.7416 109.698 32.3867 109.224 32.8906C108.753 33.3913 108.1 33.6417 107.265 33.6417C106.521 33.6417 105.919 33.433 105.46 33.0158C104.895 32.4991 104.613 31.8219 104.613 30.9842ZM106.393 30.9794C106.393 31.4351 106.476 31.7721 106.642 31.9904C106.81 32.2086 107.021 32.3177 107.274 32.3177C107.53 32.3177 107.739 32.2102 107.902 31.9952C108.068 31.7802 108.151 31.4351 108.151 30.9601C108.151 30.5172 108.068 30.1882 107.902 29.9732C107.737 29.755 107.532 29.6458 107.287 29.6458C107.028 29.6458 106.815 29.7566 106.646 29.978C106.477 30.1963 106.393 30.5301 106.393 30.9794Z" fill="white"/>
<path d="M115.946 33.5261H113.944L113.263 32.1155C113.156 31.8909 113.049 31.7497 112.945 31.6919C112.843 31.6341 112.716 31.6052 112.565 31.6052V33.5261H110.79V28.4182H112.565V30.2621C112.711 30.246 112.818 30.1931 112.888 30.1032C112.958 30.0133 113.058 29.8159 113.189 29.511C113.323 29.2061 113.442 28.9831 113.547 28.8419C113.651 28.7006 113.785 28.5947 113.948 28.5241C114.111 28.4535 114.314 28.4086 114.559 28.3893C114.803 28.3701 115.166 28.3604 115.649 28.3604V29.7518H115.571C115.332 29.7518 115.15 29.763 115.025 29.7855C114.9 29.8047 114.8 29.848 114.724 29.9154C114.649 29.9828 114.562 30.1208 114.463 30.3295C114.364 30.5381 114.281 30.6841 114.214 30.7676C114.15 30.8478 114.054 30.9024 113.926 30.9312C114.173 30.9569 114.364 31.0163 114.498 31.1094C114.631 31.1992 114.833 31.4929 115.104 31.9904L115.946 33.5261Z" fill="white"/>
<path d="M118.149 30.0695L116.452 29.8721C116.516 29.5447 116.607 29.288 116.727 29.1018C116.849 28.9125 117.023 28.7488 117.25 28.6108C117.413 28.5113 117.637 28.4343 117.922 28.3797C118.207 28.3251 118.515 28.2979 118.846 28.2979C119.379 28.2979 119.806 28.3316 120.129 28.399C120.452 28.4631 120.721 28.5995 120.936 28.8082C121.087 28.9526 121.206 29.158 121.294 29.4244C121.381 29.6876 121.424 29.9395 121.424 30.1802V32.4381C121.424 32.6788 121.437 32.8682 121.464 33.0062C121.493 33.141 121.554 33.3143 121.647 33.5261H119.981C119.914 33.3945 119.87 33.295 119.85 33.2276C119.829 33.157 119.809 33.0479 119.789 32.9003C119.556 33.1474 119.325 33.3239 119.095 33.4298C118.781 33.571 118.416 33.6417 118 33.6417C117.448 33.6417 117.028 33.5004 116.74 33.218C116.455 32.9356 116.312 32.5873 116.312 32.1733C116.312 31.785 116.415 31.4656 116.622 31.2153C116.828 30.9649 117.209 30.7788 117.765 30.6568C118.431 30.5092 118.862 30.4065 119.06 30.3487C119.258 30.2877 119.467 30.2091 119.688 30.1128C119.688 29.8721 119.643 29.7036 119.553 29.6073C119.463 29.511 119.304 29.4629 119.078 29.4629C118.787 29.4629 118.569 29.5142 118.423 29.617C118.31 29.6972 118.218 29.848 118.149 30.0695ZM119.688 31.0997C119.444 31.196 119.19 31.2811 118.925 31.3549C118.564 31.4608 118.336 31.5651 118.24 31.6678C118.141 31.7737 118.092 31.8941 118.092 32.0289C118.092 32.1829 118.14 32.3097 118.236 32.4092C118.335 32.5055 118.479 32.5536 118.668 32.5536C118.865 32.5536 119.049 32.5007 119.217 32.3948C119.389 32.2889 119.509 32.1605 119.579 32.0096C119.652 31.8556 119.688 31.6566 119.688 31.4127V31.0997Z" fill="white"/>
<path d="M126.393 29.848H125.106V33.5261H123.326V29.848H122.039V28.4182H126.393V29.848Z" fill="white"/>
<path d="M127.029 28.4134H128.927V30.3776H127.029V28.4134ZM127.029 31.5619H128.927V33.5261H127.029V31.5619Z" fill="white"/>
<path d="M132.765 30.9842C132.765 30.2043 133.004 29.5624 133.481 29.0585C133.958 28.5514 134.602 28.2979 135.413 28.2979C136.341 28.2979 137.042 28.5947 137.516 29.1885C137.897 29.6667 138.087 30.2556 138.087 30.9553C138.087 31.7416 137.85 32.3867 137.376 32.8906C136.905 33.3913 136.252 33.6417 135.418 33.6417C134.673 33.6417 134.071 33.433 133.612 33.0158C133.048 32.4991 132.765 31.8219 132.765 30.9842ZM134.545 30.9794C134.545 31.4351 134.628 31.7721 134.794 31.9904C134.962 32.2086 135.173 32.3177 135.426 32.3177C135.682 32.3177 135.892 32.2102 136.054 31.9952C136.22 31.7802 136.303 31.4351 136.303 30.9601C136.303 30.5172 136.22 30.1882 136.054 29.9732C135.889 29.755 135.684 29.6458 135.439 29.6458C135.181 29.6458 134.967 29.7566 134.798 29.978C134.629 30.1963 134.545 30.5301 134.545 30.9794Z" fill="white"/>
<path d="M143.827 33.5261H142.052V29.848H140.7V33.5261H138.925V28.4182H143.827V33.5261Z" fill="white"/>
<path d="M148.804 29.848H147.518V33.5261H145.738V29.848H144.451V28.4182H148.804V29.848Z" fill="white"/>
<path d="M149.219 30.9842C149.219 30.2043 149.457 29.5624 149.934 29.0585C150.411 28.5514 151.055 28.2979 151.867 28.2979C152.794 28.2979 153.495 28.5947 153.969 29.1885C154.35 29.6667 154.54 30.2556 154.54 30.9553C154.54 31.7416 154.303 32.3867 153.829 32.8906C153.358 33.3913 152.705 33.6417 151.871 33.6417C151.126 33.6417 150.524 33.433 150.065 33.0158C149.501 32.4991 149.219 31.8219 149.219 30.9842ZM150.998 30.9794C150.998 31.4351 151.081 31.7721 151.247 31.9904C151.416 32.2086 151.627 32.3177 151.88 32.3177C152.136 32.3177 152.345 32.2102 152.508 31.9952C152.673 31.7802 152.756 31.4351 152.756 30.9601C152.756 30.5172 152.673 30.1882 152.508 29.9732C152.342 29.755 152.137 29.6458 151.893 29.6458C151.634 29.6458 151.42 29.7566 151.251 29.978C151.083 30.1963 150.998 30.5301 150.998 30.9794Z" fill="white"/>
<path d="M161.816 33.5261H160.316V30.3198L159.216 33.5261H158.148L156.957 30.3198V33.5261H155.456V28.4182H157.576L158.684 31.3549L159.701 28.4182H161.816V33.5261Z" fill="white"/>
<path d="M171.116 33.5261H169.437V31.0131L167.692 33.5261H166.004V28.4182H167.683V30.9649L169.445 28.4182H171.116V33.5261Z" fill="white"/>
<path d="M178.727 30.8061C179.079 30.8446 179.359 30.973 179.565 31.1912C179.774 31.4095 179.879 31.7015 179.879 32.0674C179.879 32.5552 179.734 32.9211 179.443 33.165C179.152 33.4058 178.63 33.5261 177.877 33.5261H175.234V28.4182H178.091C178.608 28.4182 179.002 28.5273 179.273 28.7456C179.546 28.9638 179.683 29.2687 179.683 29.6603C179.683 29.9363 179.594 30.177 179.417 30.3824C179.239 30.5846 179.01 30.7194 178.727 30.7868V30.8061ZM177.009 30.3632H177.458C177.755 30.3632 177.903 30.2139 177.903 29.9154C177.903 29.6747 177.746 29.5544 177.432 29.5544H177.009V30.3632ZM177.009 32.3226H177.593C177.739 32.3226 177.857 32.2856 177.947 32.2118C178.037 32.138 178.082 32.0305 178.082 31.8893C178.082 31.5812 177.919 31.4271 177.593 31.4271H177.009V32.3226Z" fill="white"/>
<path d="M183.722 35.4711V28.4134H185.384V29.1692C185.614 28.8515 185.824 28.6365 186.016 28.5241C186.275 28.3733 186.562 28.2979 186.876 28.2979C187.495 28.2979 187.973 28.5594 188.311 29.0826C188.651 29.6057 188.821 30.2524 188.821 31.0227C188.821 31.8732 188.636 32.5231 188.267 32.9725C187.898 33.4186 187.431 33.6417 186.867 33.6417C186.594 33.6417 186.343 33.5903 186.117 33.4876C185.893 33.3849 185.692 33.2324 185.515 33.0302V35.4711H183.722ZM185.502 30.9842C185.502 31.3886 185.579 31.6887 185.733 31.8845C185.887 32.0802 186.082 32.1781 186.317 32.1781C186.524 32.1781 186.697 32.0851 186.836 31.8989C186.976 31.7095 187.046 31.3902 187.046 30.9409C187.046 30.5268 186.973 30.2235 186.828 30.031C186.682 29.8352 186.505 29.7373 186.296 29.7373C186.069 29.7373 185.88 29.8352 185.728 30.031C185.577 30.2268 185.502 30.5445 185.502 30.9842Z" fill="white"/>
<path d="M189.454 30.9842C189.454 30.2043 189.692 29.5624 190.169 29.0585C190.646 28.5514 191.29 28.2979 192.101 28.2979C193.029 28.2979 193.73 28.5947 194.204 29.1885C194.585 29.6667 194.775 30.2556 194.775 30.9553C194.775 31.7416 194.538 32.3867 194.064 32.8906C193.593 33.3913 192.94 33.6417 192.106 33.6417C191.361 33.6417 190.759 33.433 190.3 33.0158C189.736 32.4991 189.454 31.8219 189.454 30.9842ZM191.233 30.9794C191.233 31.4351 191.316 31.7721 191.482 31.9904C191.651 32.2086 191.861 32.3177 192.114 32.3177C192.37 32.3177 192.58 32.2102 192.742 31.9952C192.908 31.7802 192.991 31.4351 192.991 30.9601C192.991 30.5172 192.908 30.1882 192.742 29.9732C192.577 29.755 192.372 29.6458 192.127 29.6458C191.869 29.6458 191.655 29.7566 191.486 29.978C191.318 30.1963 191.233 30.5301 191.233 30.9794Z" fill="white"/>
<path d="M199.918 30.8831C200.194 30.9794 200.414 31.1302 200.577 31.3356C200.739 31.5378 200.821 31.7625 200.821 32.0096C200.821 32.5424 200.59 32.9484 200.127 33.2276C199.665 33.5069 198.99 33.6465 198.103 33.6465C197.359 33.6465 196.773 33.4956 196.345 33.1939C195.921 32.889 195.614 32.4317 195.425 31.8219L197.113 31.6149C197.171 31.7946 197.291 31.9551 197.471 32.0963C197.654 32.2343 197.862 32.3033 198.095 32.3033C198.691 32.3033 198.989 32.1396 198.989 31.8122C198.989 31.6999 198.932 31.61 198.819 31.5426C198.705 31.472 198.557 31.4367 198.374 31.4367H197.602V30.4306H198.391C198.545 30.4306 198.686 30.3953 198.814 30.3246C198.942 30.254 199.006 30.1642 199.006 30.055C199.006 29.9331 198.931 29.8336 198.779 29.7566C198.631 29.6795 198.423 29.641 198.156 29.641C197.894 29.641 197.673 29.702 197.493 29.824C197.312 29.9427 197.198 30.0855 197.148 30.2524L195.512 30.0069C195.672 29.426 195.965 28.9975 196.389 28.7215C196.814 28.4423 197.4 28.3027 198.147 28.3027C198.923 28.3027 199.531 28.4423 199.97 28.7215C200.412 29.0007 200.633 29.3538 200.633 29.7806C200.633 30.2942 200.395 30.6616 199.918 30.8831Z" fill="white"/>
<path d="M206.928 33.5261H205.148V31.5956H203.534V33.5261H201.754V28.4182H203.534V30.1658H205.148V28.4182H206.928V33.5261Z" fill="white"/>
<path d="M213.235 33.5261H211.556V31.0131L209.811 33.5261H208.123V28.4182H209.802V30.9649L211.564 28.4182H213.235V33.5261Z" fill="white"/>
<path d="M219.926 34.9848H218.692V33.5261H214.343V28.4182H216.118V32.0963H217.47V28.4182H219.246V32.0963H219.926V34.9848Z" fill="white"/>
<path d="M220.022 28.4134H221.898L222.853 31.8171L223.739 28.4134H225.488L223.651 33.8776C223.442 34.5002 223.228 34.9206 223.01 35.1389C222.702 35.447 222.232 35.6011 221.601 35.6011C221.345 35.6011 220.95 35.5625 220.415 35.4855L220.275 34.1183C220.531 34.2081 220.816 34.2531 221.13 34.2531C221.34 34.2531 221.508 34.2001 221.636 34.0942C221.767 33.9883 221.878 33.7989 221.968 33.5261L220.022 28.4134Z" fill="white"/>
<path d="M11.4655 8.17745L20.1899 1.86107L28.9143 8.17745L28.9184 8.18042L37.6216 14.526L34.3103 24.7752L34.3088 24.78L30.9633 35.0182L20.1924 35.0362H20.1873L9.41647 35.0182L6.07095 24.78L6.06939 24.7752L2.75815 14.526L11.4614 8.18042L11.4655 8.17745Z" stroke="white" stroke-width="3.01494"/>
<path fill-rule="evenodd" clip-rule="evenodd" d="M20.1367 11.5479C20.2273 11.5479 20.3177 11.5488 20.4078 11.5508V13.0684H20.4101V20.6784H16.9856V15.4855C14.8037 16.2855 13.3141 18.0432 13.3141 20.9055C13.3141 24.4891 15.6491 26.3411 18.7543 26.7501V30.2082C13.4637 29.7794 9.375 26.8257 9.375 20.9055C9.375 14.4787 14.1932 11.5479 20.1367 11.5479Z" fill="white"/>
<path fill-rule="evenodd" clip-rule="evenodd" d="M20.5586 30.21C20.5123 30.21 20.466 30.2097 20.4198 30.2092V28.6728H20.4177V20.6823H23.8423V26.2222C25.9517 25.4002 27.3812 23.6563 27.3812 20.8524C27.3812 17.2687 25.0461 15.4166 21.9408 15.0077V11.5496C27.2315 11.9783 31.3203 14.932 31.3203 20.8524C31.3203 27.2791 26.5021 30.21 20.5586 30.21Z" fill="white"/>
</svg>
