<svg width="263" height="47" viewBox="0 0 263 47" fill="none" xmlns="http://www.w3.org/2000/svg">
<path d="M67.1684 18.8397L71.3808 20.113C71.0978 21.2943 70.6522 22.2811 70.0438 23.0734C69.4355 23.8656 68.6786 24.4633 67.7732 24.8666C66.8748 25.2698 65.7288 25.4714 64.3353 25.4714C62.6447 25.4714 61.2618 25.2273 60.1866 24.7392C59.1184 24.2441 58.1953 23.3775 57.4172 22.1396C56.6391 20.9017 56.25 19.3172 56.25 17.386C56.25 14.8112 56.9326 12.8341 58.2979 11.4547C59.6702 10.0682 61.6084 9.375 64.1125 9.375C66.0719 9.375 67.6105 9.77113 68.7281 10.5634C69.8529 11.3557 70.6876 12.5723 71.2322 14.2135L66.988 15.1578C66.8394 14.6839 66.6838 14.3372 66.5211 14.118C66.2523 13.7501 65.9234 13.4672 65.5343 13.2691C65.1453 13.071 64.7102 12.972 64.2292 12.972C63.1398 12.972 62.3051 13.4106 61.7251 14.2877C61.2865 14.9385 61.0672 15.9607 61.0672 17.3542C61.0672 19.0802 61.329 20.2651 61.8524 20.9088C62.3759 21.5454 63.1116 21.8637 64.0594 21.8637C64.979 21.8637 65.6723 21.6055 66.1391 21.0892C66.6131 20.5728 66.9561 19.823 67.1684 18.8397Z" fill="#2B344A"/>
<path d="M72.8502 9.64027H87.461V13.4813H82.5589V25.1955H77.7523V13.4813H72.8502V9.64027Z" fill="#2B344A"/>
<path d="M97.9138 22.6277H92.4387L91.6853 25.1955H86.7726L92.6191 9.64027H97.8607L103.707 25.1955H98.6777L97.9138 22.6277ZM96.9058 19.2641L95.1868 13.6723L93.4785 19.2641H96.9058Z" fill="#2B344A"/>
<path d="M120.201 25.1955H115.394V13.4601H111.638V18.2455C111.638 20.212 111.532 21.6586 111.32 22.5853C111.115 23.5049 110.626 24.1804 109.855 24.6119C109.091 25.0434 107.854 25.2591 106.142 25.2591C105.618 25.2591 105.017 25.2026 104.338 25.0894V21.938H105.059C105.71 21.938 106.17 21.7965 106.439 21.5136C106.708 21.2236 106.842 20.6966 106.842 19.9326V9.64027H120.201V25.1955Z" fill="#2B344A"/>
<path d="M127.995 15.6353H130.562C132.918 15.6353 134.665 16.0526 135.804 16.8873C136.943 17.715 137.512 19.0059 137.512 20.7602C137.512 22.1962 136.989 23.2962 135.942 24.0601C134.902 24.817 133.406 25.1955 131.454 25.1955H123.199V9.64027H127.995V15.6353ZM127.995 21.8531H130.456C131.963 21.8531 132.716 21.3084 132.716 20.2191C132.716 19.2641 131.963 18.7866 130.456 18.7866H127.995V21.8531Z" fill="#2B344A"/>
<path d="M139.326 17.8529H145.608V21.1953H139.326V17.8529Z" fill="#2B344A"/>
<path d="M158.754 10.8287C163.479 11.3238 165.842 13.446 165.842 17.1951C165.842 21.022 163.479 23.1512 158.754 23.5827V25.1955H154.382V23.5402C149.664 23.137 147.305 21.022 147.305 17.1951C147.305 13.4389 149.664 11.3167 154.382 10.8287V9.64027H158.754V10.8287ZM158.754 20.3252C159.511 20.1059 160.098 19.7169 160.515 19.158C160.933 18.5921 161.141 17.9166 161.141 17.1314C161.141 16.3816 160.926 15.7096 160.494 15.1154C160.07 14.5141 159.49 14.0932 158.754 13.8527V20.3252ZM154.382 20.3676V13.9376C153.668 14.1427 153.091 14.5495 152.653 15.1578C152.214 15.7591 151.995 16.4452 151.995 17.2163C151.995 17.9378 152.211 18.585 152.642 19.158C153.081 19.731 153.661 20.1342 154.382 20.3676Z" fill="#2B344A"/>
<path d="M177.975 22.6277H172.5L171.746 25.1955H166.834L172.68 9.64027H177.922L183.768 25.1955H178.739L177.975 22.6277ZM176.967 19.2641L175.248 13.6723L173.54 19.2641H176.967Z" fill="#2B344A"/>
<path d="M199.896 25.1955H194.485L192.617 21.174C192.172 20.2262 191.825 19.6355 191.577 19.4021C191.33 19.1616 190.987 19.0413 190.548 19.0413V25.1955H185.752V9.64027H190.548V15.6141C190.965 15.5928 191.291 15.4443 191.524 15.1684C191.758 14.8925 192.122 14.1003 192.617 12.7916C192.978 11.8225 193.342 11.1293 193.71 10.7119C194.078 10.2875 194.676 9.98334 195.503 9.79943C196.331 9.61551 197.629 9.52355 199.397 9.52355V12.8129H199.153C198.333 12.8129 197.724 12.9685 197.328 13.2797C196.932 13.591 196.607 14.0967 196.352 14.797C196.098 15.4903 195.822 16.0102 195.525 16.3568C195.235 16.6964 194.835 16.9687 194.326 17.1738C195.019 17.4002 195.624 17.7928 196.14 18.3516C196.656 18.9034 197.205 19.7664 197.785 20.9406L199.896 25.1955Z" fill="#2B344A"/>
<path d="M201.185 9.64027H215.796V13.4813H210.893V25.1955H206.087V13.4813H201.185V9.64027Z" fill="#2B344A"/>
<path d="M216.952 9.64027H222.172L224.326 16.0491L226.448 9.64027H231.34L226.236 21.6515C225.819 22.6206 225.454 23.3457 225.143 23.8267C224.832 24.3007 224.369 24.6932 223.753 25.0045C223.145 25.3087 222.307 25.4607 221.238 25.4607C220.673 25.4607 219.7 25.3794 218.32 25.2167V22.0017C219.134 22.0866 219.728 22.129 220.103 22.129C221.214 22.129 221.889 21.7152 222.13 20.8876L216.952 9.64027Z" fill="#2B344A"/>
<path d="M233.212 9.64027H241.202C242.942 9.64027 244.244 10.0541 245.107 10.8817C245.977 11.7093 246.412 12.8871 246.412 14.4151C246.412 15.9854 245.938 17.2127 244.99 18.097C244.049 18.9812 242.61 19.4233 240.672 19.4233H238.04V25.1955H233.212V9.64027ZM238.04 16.2719H239.218C240.145 16.2719 240.795 16.1128 241.17 15.7944C241.545 15.4691 241.733 15.0552 241.733 14.553C241.733 14.0649 241.57 13.6511 241.245 13.3116C240.919 12.972 240.307 12.8022 239.409 12.8022H238.04V16.2719Z" fill="#2B344A"/>
<path d="M257.204 22.6277H251.729L250.976 25.1955H246.063L251.91 9.64027H257.151L262.998 25.1955H257.968L257.204 22.6277ZM256.196 19.2641L254.477 13.6723L252.769 19.2641H256.196Z" fill="#2B344A"/>
<path d="M65.672 38.9229H63.9301V35.2008L62.654 38.9229H61.4134L60.031 35.2008V38.9229H58.2891V32.9932H60.75L62.0362 36.4024L63.2161 32.9932H65.672V38.9229Z" fill="#2B344A"/>
<path d="M72.9689 36.5198H68.8368C68.874 36.8849 68.9634 37.1569 69.1052 37.3357C69.3044 37.5928 69.5643 37.7213 69.885 37.7213C70.0876 37.7213 70.28 37.6655 70.4623 37.5537C70.5737 37.4829 70.6936 37.3581 70.8218 37.1792L72.8524 37.386C72.5418 37.9822 72.1671 38.4106 71.7282 38.6714C71.2894 38.9285 70.6598 39.0571 69.8395 39.0571C69.1272 39.0571 68.5668 38.9472 68.1583 38.7273C67.7498 38.5038 67.4106 38.1517 67.1405 37.6711C66.8738 37.1867 66.7405 36.6185 66.7405 35.9665C66.7405 35.0387 67.0088 34.288 67.5456 33.7142C68.0857 33.1404 68.8301 32.8535 69.7787 32.8535C70.5484 32.8535 71.156 32.9821 71.6017 33.2391C72.0473 33.4962 72.3865 33.8688 72.6195 34.3569C72.8524 34.845 72.9689 35.4802 72.9689 36.2627V36.5198ZM70.8725 35.4299C70.832 34.9903 70.7239 34.6755 70.5484 34.4854C70.3762 34.2954 70.1484 34.2004 69.8648 34.2004C69.5373 34.2004 69.2757 34.3439 69.0799 34.6308C68.955 34.8096 68.8757 35.076 68.8419 35.4299H70.8725Z" fill="#2B344A"/>
<path d="M78.4478 34.6531H76.954V38.9229H74.888V34.6531H73.3942V32.9932H78.4478V34.6531Z" fill="#2B344A"/>
<path d="M81.0607 34.9102L79.0909 34.681C79.1652 34.301 79.2715 34.0029 79.41 33.7868C79.5517 33.567 79.7543 33.377 80.0176 33.2168C80.2066 33.1013 80.4666 33.0119 80.7974 32.9485C81.1283 32.8852 81.4861 32.8535 81.8709 32.8535C82.4887 32.8535 82.985 32.8926 83.3597 32.9709C83.7344 33.0454 84.0467 33.2037 84.2965 33.4459C84.472 33.6136 84.6104 33.852 84.7117 34.1613C84.813 34.4668 84.8636 34.7593 84.8636 35.0387V37.6599C84.8636 37.9393 84.8788 38.1591 84.9092 38.3193C84.9429 38.4758 85.0138 38.677 85.1219 38.9229H83.1875C83.1099 38.7702 83.0592 38.6547 83.0356 38.5764C83.012 38.4945 82.9883 38.3678 82.9647 38.1964C82.6946 38.4833 82.4263 38.6882 82.1596 38.8112C81.795 38.9751 81.3713 39.0571 80.8886 39.0571C80.2472 39.0571 79.7594 38.8931 79.4251 38.5653C79.0943 38.2374 78.9289 37.8331 78.9289 37.3525C78.9289 36.9017 79.0487 36.5309 79.2884 36.2403C79.5281 35.9497 79.9703 35.7336 80.6151 35.592C81.3882 35.4206 81.8895 35.3014 82.1191 35.2343C82.3486 35.1635 82.5917 35.0723 82.8482 34.9605C82.8482 34.681 82.7959 34.4854 82.6913 34.3737C82.5866 34.2619 82.4026 34.206 82.1393 34.206C81.8017 34.206 81.5485 34.2656 81.3798 34.3848C81.2481 34.478 81.1418 34.6531 81.0607 34.9102ZM82.8482 36.1062C82.5647 36.218 82.2693 36.3167 81.9621 36.4024C81.5435 36.5253 81.2785 36.6464 81.1671 36.7657C81.0523 36.8886 80.9949 37.0283 80.9949 37.1848C80.9949 37.3637 81.0506 37.5108 81.162 37.6263C81.2768 37.7381 81.4439 37.794 81.6633 37.794C81.8929 37.794 82.1056 37.7325 82.3014 37.6096C82.5005 37.4866 82.6406 37.3376 82.7216 37.1625C82.806 36.9836 82.8482 36.7526 82.8482 36.4695V36.1062Z" fill="#2B344A"/>
<path d="M92.2769 38.9229H90.216V34.6531H88.6513V37.1401C88.6513 37.8033 88.5281 38.2951 88.2816 38.6156C88.0386 38.936 87.6639 39.0962 87.1575 39.0962C86.5836 39.0962 86.0688 39.0384 85.613 38.9229V37.2407C85.8561 37.3227 86.0418 37.3637 86.1701 37.3637C86.4469 37.3637 86.5853 37.1364 86.5853 36.6818V32.9932H92.2769V38.9229Z" fill="#2B344A"/>
<path d="M99.7004 38.9229H97.6394V34.6531H96.0747V37.1401C96.0747 37.8033 95.9515 38.2951 95.7051 38.6156C95.462 38.936 95.0873 39.0962 94.5809 39.0962C94.007 39.0962 93.4922 39.0384 93.0365 38.9229V37.2407C93.2796 37.3227 93.4652 37.3637 93.5935 37.3637C93.8703 37.3637 94.0087 37.1364 94.0087 36.6818V32.9932H99.7004V38.9229Z" fill="#2B344A"/>
<path d="M100.693 35.9721C100.693 35.0667 100.97 34.3215 101.523 33.7365C102.077 33.1479 102.825 32.8535 103.767 32.8535C104.843 32.8535 105.657 33.1982 106.207 33.8874C106.65 34.4426 106.871 35.1263 106.871 35.9385C106.871 36.8514 106.596 37.6003 106.045 38.1852C105.498 38.7665 104.741 39.0571 103.772 39.0571C102.907 39.0571 102.209 38.8149 101.675 38.3305C101.02 37.7307 100.693 36.9445 100.693 35.9721ZM102.759 35.9665C102.759 36.4955 102.855 36.8868 103.048 37.1401C103.243 37.3935 103.488 37.5202 103.782 37.5202C104.079 37.5202 104.322 37.3953 104.511 37.1457C104.703 36.8961 104.8 36.4955 104.8 35.9441C104.8 35.4299 104.703 35.048 104.511 34.7984C104.319 34.5451 104.081 34.4184 103.797 34.4184C103.497 34.4184 103.248 34.5469 103.053 34.804C102.857 35.0574 102.759 35.4449 102.759 35.9665Z" fill="#2B344A"/>
<path d="M113.535 38.9229H111.474V34.6531H109.904V38.9229H107.843V32.9932H113.535V38.9229Z" fill="#2B344A"/>
<path d="M114.79 41.1808V32.9876H116.72V33.8651C116.986 33.4962 117.231 33.2466 117.454 33.1162C117.754 32.9411 118.087 32.8535 118.451 32.8535C119.17 32.8535 119.726 33.1572 120.117 33.7645C120.512 34.3718 120.71 35.1226 120.71 36.0168C120.71 37.0041 120.496 37.7586 120.067 38.2802C119.638 38.7981 119.096 39.0571 118.441 39.0571C118.124 39.0571 117.834 38.9975 117.57 38.8782C117.31 38.759 117.077 38.582 116.872 38.3473V41.1808H114.79ZM116.856 35.9721C116.856 36.4415 116.946 36.7899 117.125 37.0172C117.304 37.2444 117.53 37.3581 117.803 37.3581C118.043 37.3581 118.244 37.25 118.406 37.0339C118.568 36.8141 118.649 36.4434 118.649 35.9218C118.649 35.4411 118.565 35.089 118.396 34.8655C118.227 34.6382 118.021 34.5246 117.778 34.5246C117.515 34.5246 117.295 34.6382 117.12 34.8655C116.944 35.0928 116.856 35.4616 116.856 35.9721Z" fill="#2B344A"/>
<path d="M121.444 35.9721C121.444 35.0667 121.721 34.3215 122.275 33.7365C122.828 33.1479 123.576 32.8535 124.518 32.8535C125.595 32.8535 126.408 33.1982 126.959 33.8874C127.401 34.4426 127.622 35.1263 127.622 35.9385C127.622 36.8514 127.347 37.6003 126.797 38.1852C126.25 38.7665 125.492 39.0571 124.523 39.0571C123.659 39.0571 122.96 38.8149 122.426 38.3305C121.772 37.7307 121.444 36.9445 121.444 35.9721ZM123.51 35.9665C123.51 36.4955 123.606 36.8868 123.799 37.1401C123.995 37.3935 124.239 37.5202 124.533 37.5202C124.83 37.5202 125.073 37.3953 125.262 37.1457C125.455 36.8961 125.551 36.4955 125.551 35.9441C125.551 35.4299 125.455 35.048 125.262 34.7984C125.07 34.5451 124.832 34.4184 124.548 34.4184C124.248 34.4184 124 34.5469 123.804 34.804C123.608 35.0574 123.51 35.4449 123.51 35.9665Z" fill="#2B344A"/>
<path d="M134.6 38.9229H132.275L131.486 37.2854C131.361 37.0246 131.237 36.8607 131.116 36.7936C130.998 36.7265 130.851 36.693 130.675 36.693V38.9229H128.614V32.9932H130.675V35.1337C130.844 35.1151 130.969 35.0536 131.05 34.9493C131.131 34.845 131.248 34.6158 131.399 34.2619C131.555 33.9079 131.693 33.649 131.815 33.485C131.936 33.3211 132.091 33.1982 132.281 33.1162C132.47 33.0342 132.706 32.9821 132.989 32.9597C133.273 32.9373 133.695 32.9262 134.255 32.9262V34.5413H134.164C133.887 34.5413 133.676 34.5544 133.531 34.5805C133.386 34.6028 133.27 34.6531 133.182 34.7313C133.094 34.8096 132.993 34.9698 132.878 35.212C132.763 35.4542 132.667 35.6237 132.589 35.7206C132.515 35.8137 132.404 35.877 132.255 35.9106C132.542 35.9404 132.763 36.0093 132.919 36.1174C133.074 36.2217 133.308 36.5626 133.622 37.1401L134.6 38.9229Z" fill="#2B344A"/>
<path d="M137.157 34.9102L135.187 34.681C135.261 34.301 135.368 34.0029 135.506 33.7868C135.648 33.567 135.85 33.377 136.114 33.2168C136.303 33.1013 136.563 33.0119 136.894 32.9485C137.224 32.8852 137.582 32.8535 137.967 32.8535C138.585 32.8535 139.081 32.8926 139.456 32.9709C139.831 33.0454 140.143 33.2037 140.393 33.4459C140.568 33.6136 140.707 33.852 140.808 34.1613C140.909 34.4668 140.96 34.7593 140.96 35.0387V37.6599C140.96 37.9393 140.975 38.1591 141.005 38.3193C141.039 38.4758 141.11 38.677 141.218 38.9229H139.284C139.206 38.7702 139.155 38.6547 139.132 38.5764C139.108 38.4945 139.085 38.3678 139.061 38.1964C138.791 38.4833 138.522 38.6882 138.256 38.8112C137.891 38.9751 137.468 39.0571 136.985 39.0571C136.343 39.0571 135.856 38.8931 135.521 38.5653C135.191 38.2374 135.025 37.8331 135.025 37.3525C135.025 36.9017 135.145 36.5309 135.385 36.2403C135.624 35.9497 136.067 35.7336 136.711 35.592C137.484 35.4206 137.986 35.3014 138.215 35.2343C138.445 35.1635 138.688 35.0723 138.944 34.9605C138.944 34.681 138.892 34.4854 138.787 34.3737C138.683 34.2619 138.499 34.206 138.236 34.206C137.898 34.206 137.645 34.2656 137.476 34.3848C137.344 34.478 137.238 34.6531 137.157 34.9102ZM138.944 36.1062C138.661 36.218 138.365 36.3167 138.058 36.4024C137.64 36.5253 137.375 36.6464 137.263 36.7657C137.148 36.8886 137.091 37.0283 137.091 37.1848C137.091 37.3637 137.147 37.5108 137.258 37.6263C137.373 37.7381 137.54 37.794 137.76 37.794C137.989 37.794 138.202 37.7325 138.398 37.6096C138.597 37.4866 138.737 37.3376 138.818 37.1625C138.902 36.9836 138.944 36.7526 138.944 36.4695V36.1062Z" fill="#2B344A"/>
<path d="M146.727 34.6531H145.234V38.9229H143.168V34.6531H141.674V32.9932H146.727V34.6531Z" fill="#2B344A"/>
<path d="M147.467 32.9876H149.669V35.2679H147.467V32.9876ZM147.467 36.6427H149.669V38.9229H147.467V36.6427Z" fill="#2B344A"/>
<path d="M154.126 35.9721C154.126 35.0667 154.402 34.3215 154.956 33.7365C155.51 33.1479 156.257 32.8535 157.199 32.8535C158.276 32.8535 159.09 33.1982 159.64 33.8874C160.082 34.4426 160.303 35.1263 160.303 35.9385C160.303 36.8514 160.028 37.6003 159.478 38.1852C158.931 38.7665 158.173 39.0571 157.204 39.0571C156.34 39.0571 155.641 38.8149 155.108 38.3305C154.453 37.7307 154.126 36.9445 154.126 35.9721ZM156.192 35.9665C156.192 36.4955 156.288 36.8868 156.48 37.1401C156.676 37.3935 156.921 37.5202 157.214 37.5202C157.512 37.5202 157.755 37.3953 157.944 37.1457C158.136 36.8961 158.232 36.4955 158.232 35.9441C158.232 35.4299 158.136 35.048 157.944 34.7984C157.751 34.5451 157.513 34.4184 157.23 34.4184C156.929 34.4184 156.681 34.5469 156.485 34.804C156.289 35.0574 156.192 35.4449 156.192 35.9665Z" fill="#2B344A"/>
<path d="M166.967 38.9229H164.906V34.6531H163.337V38.9229H161.276V32.9932H166.967V38.9229Z" fill="#2B344A"/>
<path d="M172.745 34.6531H171.251V38.9229H169.185V34.6531H167.691V32.9932H172.745V34.6531Z" fill="#2B344A"/>
<path d="M173.226 35.9721C173.226 35.0667 173.503 34.3215 174.056 33.7365C174.61 33.1479 175.358 32.8535 176.3 32.8535C177.377 32.8535 178.19 33.1982 178.74 33.8874C179.183 34.4426 179.404 35.1263 179.404 35.9385C179.404 36.8514 179.129 37.6003 178.578 38.1852C178.032 38.7665 177.274 39.0571 176.305 39.0571C175.441 39.0571 174.742 38.8149 174.208 38.3305C173.553 37.7307 173.226 36.9445 173.226 35.9721ZM175.292 35.9665C175.292 36.4955 175.388 36.8868 175.581 37.1401C175.776 37.3935 176.021 37.5202 176.315 37.5202C176.612 37.5202 176.855 37.3953 177.044 37.1457C177.236 36.8961 177.333 36.4955 177.333 35.9441C177.333 35.4299 177.236 35.048 177.044 34.7984C176.852 34.5451 176.614 34.4184 176.33 34.4184C176.03 34.4184 175.782 34.5469 175.586 34.804C175.39 35.0574 175.292 35.4449 175.292 35.9665Z" fill="#2B344A"/>
<path d="M187.85 38.9229H186.108V35.2008L184.832 38.9229H183.591L182.209 35.2008V38.9229H180.467V32.9932H182.928L184.214 36.4024L185.394 32.9932H187.85V38.9229Z" fill="#2B344A"/>
<path d="M198.646 38.9229H196.696V36.0056L194.671 38.9229H192.711V32.9932H194.661V35.9497L196.707 32.9932H198.646V38.9229Z" fill="#2B344A"/>
<path d="M207.482 35.7653C207.891 35.81 208.215 35.959 208.454 36.2124C208.698 36.4657 208.819 36.8048 208.819 37.2295C208.819 37.7959 208.65 38.2206 208.313 38.5038C207.975 38.7832 207.369 38.9229 206.495 38.9229H203.426V32.9932H206.743C207.344 32.9932 207.801 33.1199 208.115 33.3733C208.433 33.6266 208.591 33.9806 208.591 34.4351C208.591 34.7556 208.488 35.035 208.282 35.2735C208.076 35.5082 207.81 35.6647 207.482 35.7429V35.7653ZM205.487 35.2511H206.009C206.353 35.2511 206.525 35.0779 206.525 34.7313C206.525 34.4519 206.343 34.3122 205.978 34.3122H205.487V35.2511ZM205.487 37.5257H206.166C206.334 37.5257 206.471 37.4829 206.576 37.3972C206.68 37.3115 206.733 37.1867 206.733 37.0228C206.733 36.6651 206.544 36.4862 206.166 36.4862H205.487V37.5257Z" fill="#2B344A"/>
<path d="M213.28 41.1808V32.9876H215.21V33.8651C215.476 33.4962 215.721 33.2466 215.944 33.1162C216.244 32.9411 216.577 32.8535 216.941 32.8535C217.66 32.8535 218.216 33.1572 218.607 33.7645C219.002 34.3718 219.2 35.1226 219.2 36.0168C219.2 37.0041 218.985 37.7586 218.557 38.2802C218.128 38.7981 217.586 39.0571 216.931 39.0571C216.614 39.0571 216.324 38.9975 216.06 38.8782C215.8 38.759 215.567 38.582 215.361 38.3473V41.1808H213.28ZM215.346 35.9721C215.346 36.4415 215.436 36.7899 215.615 37.0172C215.794 37.2444 216.02 37.3581 216.293 37.3581C216.533 37.3581 216.734 37.25 216.896 37.0339C217.058 36.8141 217.139 36.4434 217.139 35.9218C217.139 35.4411 217.054 35.089 216.886 34.8655C216.717 34.6382 216.511 34.5246 216.268 34.5246C216.005 34.5246 215.785 34.6382 215.61 34.8655C215.434 35.0928 215.346 35.4616 215.346 35.9721Z" fill="#2B344A"/>
<path d="M219.934 35.9721C219.934 35.0667 220.211 34.3215 220.764 33.7365C221.318 33.1479 222.066 32.8535 223.008 32.8535C224.085 32.8535 224.898 33.1982 225.448 33.8874C225.891 34.4426 226.112 35.1263 226.112 35.9385C226.112 36.8514 225.837 37.6003 225.286 38.1852C224.74 38.7665 223.982 39.0571 223.013 39.0571C222.149 39.0571 221.45 38.8149 220.916 38.3305C220.261 37.7307 219.934 36.9445 219.934 35.9721ZM222 35.9665C222 36.4955 222.096 36.8868 222.289 37.1401C222.484 37.3935 222.729 37.5202 223.023 37.5202C223.32 37.5202 223.563 37.3953 223.752 37.1457C223.945 36.8961 224.041 36.4955 224.041 35.9441C224.041 35.4299 223.945 35.048 223.752 34.7984C223.56 34.5451 223.322 34.4184 223.038 34.4184C222.738 34.4184 222.49 34.5469 222.294 34.804C222.098 35.0574 222 35.4449 222 35.9665Z" fill="#2B344A"/>
<path d="M232.082 35.8547C232.403 35.9665 232.658 36.1416 232.847 36.38C233.036 36.6148 233.13 36.8756 233.13 37.1625C233.13 37.781 232.862 38.2523 232.325 38.5764C231.788 38.9006 231.005 39.0627 229.975 39.0627C229.111 39.0627 228.431 38.8875 227.935 38.5373C227.442 38.1834 227.086 37.6524 226.866 36.9445L228.826 36.7042C228.893 36.9128 229.032 37.0991 229.241 37.2631C229.454 37.4233 229.695 37.5034 229.965 37.5034C230.657 37.5034 231.003 37.3134 231.003 36.9333C231.003 36.8029 230.938 36.6986 230.806 36.6204C230.674 36.5384 230.502 36.4974 230.289 36.4974H229.393V35.3293H230.31C230.489 35.3293 230.652 35.2884 230.801 35.2064C230.949 35.1244 231.024 35.0201 231.024 34.8934C231.024 34.7518 230.936 34.6363 230.76 34.5469C230.588 34.4575 230.347 34.4128 230.036 34.4128C229.732 34.4128 229.476 34.4836 229.266 34.6252C229.057 34.763 228.924 34.9288 228.866 35.1226L226.968 34.8375C227.153 34.1632 227.492 33.6658 227.985 33.3453C228.478 33.0212 229.158 32.8591 230.026 32.8591C230.927 32.8591 231.633 33.0212 232.143 33.3453C232.656 33.6695 232.912 34.0793 232.912 34.5749C232.912 35.171 232.636 35.5976 232.082 35.8547Z" fill="#2B344A"/>
<path d="M240.219 38.9229H238.153V36.6818H236.28V38.9229H234.214V32.9932H236.28V35.022H238.153V32.9932H240.219V38.9229Z" fill="#2B344A"/>
<path d="M247.542 38.9229H245.592V36.0056L243.567 38.9229H241.607V32.9932H243.556V35.9497L245.602 32.9932H247.542V38.9229Z" fill="#2B344A"/>
<path d="M255.309 40.6163H253.876V38.9229H248.828V32.9932H250.889V37.2631H252.458V32.9932H254.519V37.2631H255.309V40.6163Z" fill="#2B344A"/>
<path d="M255.421 32.9876H257.598L258.707 36.9389L259.735 32.9876H261.766L259.634 39.3309C259.391 40.0537 259.143 40.5418 258.889 40.7952C258.532 41.1529 257.986 41.3317 257.254 41.3317C256.957 41.3317 256.498 41.287 255.876 41.1976L255.714 39.6104C256.012 39.7147 256.342 39.7668 256.707 39.7668C256.95 39.7668 257.146 39.7054 257.294 39.5824C257.446 39.4595 257.575 39.2396 257.679 38.9229L255.421 32.9876Z" fill="#2B344A"/>
<path d="M13.3101 9.4931L23.4382 2.1605L33.5662 9.4931L33.5709 9.49654L43.6744 16.863L39.8304 28.7612L39.8286 28.7668L35.9448 40.6521L23.4411 40.6731H23.4352L10.9315 40.6521L7.04769 28.7668L7.04588 28.7612L3.2019 16.863L13.3054 9.49654L13.3101 9.4931Z" stroke="#2B344A" stroke-width="3.5"/>
<path fill-rule="evenodd" clip-rule="evenodd" d="M23.3759 13.4053C23.4814 13.4053 23.5866 13.4064 23.6914 13.4087V15.1714H23.6962V24.0058H19.7207V17.9754C17.1862 18.9036 15.4557 20.9443 15.4557 24.2684C15.4557 28.428 18.1655 30.5779 21.7695 31.0531V35.0677C15.6285 34.5695 10.8828 31.1406 10.8828 24.2684C10.8828 16.8077 16.4762 13.4053 23.3759 13.4053Z" fill="#2B344A"/>
<path fill-rule="evenodd" clip-rule="evenodd" d="M23.8663 35.0645C23.8131 35.0645 23.76 35.0642 23.707 35.0636V33.2803H23.7023V24.0041H27.6777V30.4353C30.1268 29.4811 31.7865 27.4566 31.7865 24.2013C31.7865 20.0418 29.0767 17.8918 25.4727 17.4166V13.4021C31.6137 13.9003 36.3594 17.3292 36.3594 24.2013C36.3594 31.6621 30.766 35.0645 23.8663 35.0645Z" fill="#2B344A"/>
</svg>
