<svg width="16" height="16" viewBox="0 0 16 16" fill="none" xmlns="http://www.w3.org/2000/svg">
<path fill-rule="evenodd" clip-rule="evenodd" d="M7.31187 5.80146C7.6229 5.38231 7.73443 4.94056 7.38267 4.55063C6.59327 3.44605 6.06238 2.76299 5.72938 2.43404C5.09631 1.80866 4.05489 1.89325 3.5066 2.4335C3.21211 2.72368 3.11241 2.82332 2.81003 3.13045C1.12574 4.81565 2.15291 8.3781 4.8835 11.1114C7.61347 13.844 11.1756 14.8717 12.8634 13.183C13.1424 12.914 13.3787 12.6776 13.565 12.4807C14.1023 11.9128 14.1839 10.9173 13.5615 10.2706C13.2424 9.939 12.591 9.43374 11.4399 8.61038C11.0874 8.29515 10.6694 8.36347 10.2862 8.61489C10.1018 8.73582 9.96769 8.85816 9.71438 9.11173L9.25439 9.57197C9.1938 9.63259 8.37112 9.22059 7.57253 8.42122C6.77351 7.62141 6.36179 6.79869 6.4221 6.73839L6.88241 6.27783C6.96278 6.19738 7.0012 6.15843 7.05047 6.10664C7.15313 5.99875 7.23813 5.90083 7.31187 5.80146ZM10.1029 10.421L10.563 9.96065C10.7024 9.8211 10.7928 9.7353 10.8663 9.67614C11.8746 10.4002 12.4586 10.8556 12.6971 11.1034C12.8403 11.2522 12.818 11.5237 12.6936 11.6553C12.5213 11.8374 12.2974 12.0614 12.0227 12.3263C10.9313 13.4182 8.05591 12.5886 5.7322 10.2626C3.40776 7.93588 2.57856 5.06003 3.66173 3.97626C3.96289 3.6704 4.05831 3.57503 4.34859 3.289C4.45744 3.18175 4.75391 3.15767 4.88631 3.28846C5.14269 3.54172 5.61827 4.15066 6.31786 5.12519C6.28164 5.17015 6.23641 5.22096 6.18136 5.27882C6.14096 5.32128 6.1073 5.3554 6.03371 5.42906L5.57385 5.88917C4.79154 6.67141 5.45779 8.00276 6.72384 9.27005C7.98902 10.5365 9.32086 11.2035 10.1029 10.421Z" fill="#2B344A"/>
</svg>
